<svg xmlns="http://www.w3.org/2000/svg" viewBox="0 0 186.48 109.83" width="186.48px" height="109.83px"><defs><style>.cls-1{fill:#fff;}.cls-2{fill:#231f20;}</style></defs><title>apex-esrb-rating-t-interactive</title><g id="Layer_2" data-name="Layer 2"><g id="Layer_1-2" data-name="Layer 1"><polygon class="cls-1" points="186.36 0 185.29 0 1.07 0 0 0 0 0.96 0 88.05 0 89 1.07 89 186.48 89 186.48 0 186.36 0"/><path class="cls-2" d="M185.29,1V88.05H1.07V1H185.29"/><rect class="cls-1" x="3.76" y="4.05" width="51.4" height="14.44"/><rect class="cls-1" x="3.74" y="21.64" width="51.42" height="53.09"/><polygon class="cls-1" points="3.75 84.91 3.75 77.86 14.07 77.86 14.07 79.51 7.9 79.51 7.9 80.52 13.12 80.52 13.12 82.16 7.9 82.16 7.9 83.26 14.31 83.26 14.31 84.91 3.75 84.91"/><path class="cls-1" d="M23.08,79.91a.74.74,0,0,0-.59-.47,3.8,3.8,0,0,0-1.08-.13c-.91,0-1.32.14-1.32.41,0,1,7.28.38,7.28,3,0,1.63-2.44,2.43-5.92,2.43S15.93,84,15.84,82.74h4a1,1,0,0,0,.69.55,3.7,3.7,0,0,0,1.18.18c1,0,1.73-.18,1.73-.52,0-1.06-7.29-.33-7.29-3,0-1.5,2.33-2.25,5.49-2.25,3.51,0,5.11,1,5.42,2.23Z"/><path class="cls-1" d="M33.58,80.92h1.64c1.28,0,2-.19,2-.68s-.7-.73-1.67-.73H33.58Zm0,1.53v2.46H29.44v-7h6c4.21,0,5.6.64,5.6,2,0,.82-.65,1.5-2.12,1.73,1.33.27,2.14.44,2.14,1.86,0,.92,0,1.23.44,1.23v.22H37.27a2.83,2.83,0,0,1-.2-1.23c0-.93-.29-1.23-2.22-1.23Z"/><path class="cls-1" d="M47.72,79.51v1.18h1.73c.82,0,1.42-.21,1.42-.62s-.81-.56-1.69-.56Zm0,2.46v1.29h1.81c1,0,1.8-.12,1.8-.64S50.36,82,49,82Zm-4.15,2.94v-7h6c2.85,0,5.12.38,5.12,1.78,0,.72-.85,1.25-1.65,1.53,1.36.2,2.1.86,2.1,1.61,0,1.57-2.16,2.13-5.45,2.13Z"/><rect class="cls-1" x="58.29" y="4.03" width="123.94" height="80.89"/><polygon class="cls-2" points="7.99 34.49 47.77 24.57 50.83 35.17 38.05 38.36 46.62 68.15 32.39 71.7 23.81 41.91 11.04 45.1 7.99 34.49"/><polygon class="cls-2" points="43.06 7.18 46.44 7.18 50.36 11.64 50.22 9.78 50.22 7.18 53.68 7.18 53.68 15.35 50.31 15.35 46.38 10.9 46.45 12.83 46.52 15.35 43.06 15.35 43.06 7.18"/><polygon class="cls-2" points="30.89 7.18 39.85 7.18 39.85 9.08 34.49 9.08 34.49 10.26 39.03 10.26 39.03 12.17 34.49 12.17 34.49 13.45 40.06 13.45 40.06 15.35 30.89 15.35 30.89 7.18"/><polygon class="cls-2" points="18.3 7.18 27.26 7.18 27.26 9.08 21.9 9.08 21.9 10.26 26.43 10.26 26.43 12.17 21.9 12.17 21.9 13.45 27.48 13.45 27.48 15.35 18.3 15.35 18.3 7.18"/><polygon class="cls-2" points="5.16 7.18 15.24 7.18 15.24 9.33 12.01 9.33 12.01 15.35 8.4 15.35 8.4 9.33 5.16 9.33 5.16 7.18"/><rect class="cls-1" y="88.04" width="186.48" height="21.78"/><rect class="cls-2" x="1.15" y="87.98" width="184.19" height="20.57"/><rect class="cls-1" x="2.43" y="89.22" width="181.64" height="18.03"/><rect class="cls-2" x="11.08" y="93.89" width="0.98" height="7.42"/><path class="cls-2" d="M13.68,101.32V95.94h.82v.76a1.92,1.92,0,0,1,1.71-.88,2.35,2.35,0,0,1,.89.17,1.41,1.41,0,0,1,.61.46,1.62,1.62,0,0,1,.28.67A4.71,4.71,0,0,1,18,98v3.31h-.91V98.05a2.55,2.55,0,0,0-.1-.84.9.9,0,0,0-.38-.44,1.19,1.19,0,0,0-.64-.16A1.46,1.46,0,0,0,15,97a1.81,1.81,0,0,0-.42,1.4v2.94Z"/><rect class="cls-2" x="19.09" y="98.17" width="2.8" height="0.92"/><path class="cls-2" d="M26.48,98.41v-.88h3.15v2.75a5.22,5.22,0,0,1-1.5.87,4.29,4.29,0,0,1-1.58.29,4.11,4.11,0,0,1-2-.47,3,3,0,0,1-1.35-1.35,4.19,4.19,0,0,1-.46-2,4.47,4.47,0,0,1,.46-2,3,3,0,0,1,1.3-1.4,4.14,4.14,0,0,1,2-.45,3.71,3.71,0,0,1,1.45.26,2.24,2.24,0,0,1,1,.73A3.17,3.17,0,0,1,29.52,96l-.89.24a2.73,2.73,0,0,0-.42-.89,1.74,1.74,0,0,0-.7-.52,2.63,2.63,0,0,0-1-.19,3.13,3.13,0,0,0-1.16.2,2.21,2.21,0,0,0-.79.54,2.65,2.65,0,0,0-.47.74,3.8,3.8,0,0,0-.28,1.49,3.58,3.58,0,0,0,.34,1.66,2.11,2.11,0,0,0,1,1,3.06,3.06,0,0,0,1.39.33,3.16,3.16,0,0,0,1.24-.25,3.27,3.27,0,0,0,.93-.52V98.41Z"/><path class="cls-2" d="M34.47,100.65a3.46,3.46,0,0,1-1,.61,2.73,2.73,0,0,1-1,.18,1.93,1.93,0,0,1-1.36-.44,1.4,1.4,0,0,1-.48-1.1,1.45,1.45,0,0,1,.18-.72,1.51,1.51,0,0,1,.47-.53,2.22,2.22,0,0,1,.66-.3,7.24,7.24,0,0,1,.81-.13,7.85,7.85,0,0,0,1.62-.32c0-.12,0-.2,0-.23a1,1,0,0,0-.26-.79,1.56,1.56,0,0,0-1-.31,1.6,1.6,0,0,0-1,.23,1.39,1.39,0,0,0-.45.8l-.89-.13a2.16,2.16,0,0,1,.4-.92A1.63,1.63,0,0,1,32,96a3.51,3.51,0,0,1,1.22-.19,3.2,3.2,0,0,1,1.12.16,1.38,1.38,0,0,1,.63.41,1.43,1.43,0,0,1,.29.62,5.28,5.28,0,0,1,0,.84v1.21a12.49,12.49,0,0,0,.06,1.61,2.19,2.19,0,0,0,.23.65h-1A1.69,1.69,0,0,1,34.47,100.65Zm-.08-2A6.78,6.78,0,0,1,32.9,99a4.31,4.31,0,0,0-.79.18.77.77,0,0,0-.36.3.73.73,0,0,0-.13.43.75.75,0,0,0,.28.61,1.19,1.19,0,0,0,.81.24,1.78,1.78,0,0,0,.93-.23,1.31,1.31,0,0,0,.6-.63,2.14,2.14,0,0,0,.15-.91Z"/><path class="cls-2" d="M36.72,101.32V95.94h.82v.75a1.93,1.93,0,0,1,.67-.63,1.9,1.9,0,0,1,1-.24,1.74,1.74,0,0,1,1,.25,1.34,1.34,0,0,1,.54.69,1.92,1.92,0,0,1,1.66-.94,1.67,1.67,0,0,1,1.23.44A1.89,1.89,0,0,1,44,97.63v3.69H43.1V97.93a2.45,2.45,0,0,0-.09-.79.71.71,0,0,0-.32-.39,1,1,0,0,0-.54-.14,1.26,1.26,0,0,0-.95.38,1.69,1.69,0,0,0-.37,1.2v3.13h-.91v-3.5a1.6,1.6,0,0,0-.22-.91.85.85,0,0,0-.73-.3,1.33,1.33,0,0,0-.71.2,1.13,1.13,0,0,0-.48.59,3.62,3.62,0,0,0-.14,1.13v2.79Z"/><path class="cls-2" d="M49,99.58l.94.12a2.29,2.29,0,0,1-.82,1.28,2.78,2.78,0,0,1-3.41-.27,2.83,2.83,0,0,1-.69-2,2.94,2.94,0,0,1,.7-2.1,2.35,2.35,0,0,1,1.81-.75,2.29,2.29,0,0,1,1.76.73A2.9,2.9,0,0,1,50,98.62v.24H46a2.07,2.07,0,0,0,.5,1.36,1.49,1.49,0,0,0,1.12.47,1.44,1.44,0,0,0,.86-.26A1.76,1.76,0,0,0,49,99.58Zm-3-1.47h3a1.84,1.84,0,0,0-.34-1,1.4,1.4,0,0,0-1.13-.52,1.46,1.46,0,0,0-1.06.42A1.67,1.67,0,0,0,46.05,98.11Z"/><path class="cls-2" d="M54.12,101.32V93.89h2.8a6.26,6.26,0,0,1,1.13.08,2.24,2.24,0,0,1,.92.34,1.77,1.77,0,0,1,.59.72,2.24,2.24,0,0,1,.23,1,2.27,2.27,0,0,1-.6,1.6A2.88,2.88,0,0,1,57,98.3h-1.9v3Zm1-3.9H57a2.1,2.1,0,0,0,1.36-.35,1.29,1.29,0,0,0,.4-1,1.33,1.33,0,0,0-.24-.8,1.09,1.09,0,0,0-.62-.43,3.81,3.81,0,0,0-.92-.07H55.11Z"/><path class="cls-2" d="M64.45,101.32v-.79a2,2,0,0,1-1.71.91,2.21,2.21,0,0,1-.89-.18,1.58,1.58,0,0,1-.61-.46,1.74,1.74,0,0,1-.28-.68,4.29,4.29,0,0,1-.06-.85V95.94h.91v3a4.85,4.85,0,0,0,.06,1,1,1,0,0,0,.36.57,1.19,1.19,0,0,0,.69.2,1.49,1.49,0,0,0,.77-.21,1.17,1.17,0,0,0,.51-.57,2.85,2.85,0,0,0,.15-1.05V95.94h.91v5.38Z"/><path class="cls-2" d="M66.68,101.32V95.94h.82v.81a2.17,2.17,0,0,1,.58-.75,1,1,0,0,1,.58-.18,1.84,1.84,0,0,1,.94.29l-.31.85a1.36,1.36,0,0,0-.67-.2.88.88,0,0,0-.54.18,1,1,0,0,0-.34.5,3.57,3.57,0,0,0-.15,1.06v2.82Z"/><path class="cls-2" d="M73.65,99.35l.9.11a2.3,2.3,0,0,1-.76,1.45,2.18,2.18,0,0,1-1.48.53,2.32,2.32,0,0,1-1.78-.72,3,3,0,0,1-.67-2.07,3.83,3.83,0,0,1,.29-1.53,2.05,2.05,0,0,1,.88-1,2.67,2.67,0,0,1,1.28-.32,2.29,2.29,0,0,1,1.44.44,2.09,2.09,0,0,1,.71,1.26l-.89.14a1.44,1.44,0,0,0-.44-.82,1.19,1.19,0,0,0-.78-.27,1.41,1.41,0,0,0-1.12.49,2.33,2.33,0,0,0-.43,1.56,2.49,2.49,0,0,0,.41,1.58,1.38,1.38,0,0,0,1.09.49,1.26,1.26,0,0,0,.89-.33A1.68,1.68,0,0,0,73.65,99.35Z"/><path class="cls-2" d="M75.32,101.32V93.89h.92v2.67a2,2,0,0,1,1.61-.74,2.23,2.23,0,0,1,1,.23,1.36,1.36,0,0,1,.63.65,3,3,0,0,1,.19,1.21v3.41h-.91V97.91a1.46,1.46,0,0,0-.29-1,1.14,1.14,0,0,0-.84-.31,1.45,1.45,0,0,0-.76.21,1.17,1.17,0,0,0-.51.57,2.64,2.64,0,0,0-.15,1v2.95Z"/><path class="cls-2" d="M84.6,100.65a3.33,3.33,0,0,1-1,.61,2.73,2.73,0,0,1-1,.18,2,2,0,0,1-1.36-.44,1.4,1.4,0,0,1-.48-1.1,1.45,1.45,0,0,1,.18-.72,1.51,1.51,0,0,1,.47-.53,2.47,2.47,0,0,1,.66-.3,7.66,7.66,0,0,1,.81-.13,7.71,7.71,0,0,0,1.62-.32c0-.12,0-.2,0-.23a1,1,0,0,0-.26-.79,1.56,1.56,0,0,0-1-.31,1.62,1.62,0,0,0-1,.23,1.39,1.39,0,0,0-.45.8l-.89-.13a2.16,2.16,0,0,1,.4-.92,1.63,1.63,0,0,1,.8-.54,3.51,3.51,0,0,1,1.22-.19,3.16,3.16,0,0,1,1.12.16,1.48,1.48,0,0,1,.64.41,1.54,1.54,0,0,1,.28.62,5.28,5.28,0,0,1,0,.84v1.21a12.49,12.49,0,0,0,.06,1.61,2.19,2.19,0,0,0,.23.65h-1A2.12,2.12,0,0,1,84.6,100.65Zm-.08-2A6.64,6.64,0,0,1,83,99a4.53,4.53,0,0,0-.79.18.82.82,0,0,0-.36.3.8.8,0,0,0-.13.43.78.78,0,0,0,.28.61,1.19,1.19,0,0,0,.81.24,1.78,1.78,0,0,0,.93-.23,1.38,1.38,0,0,0,.61-.63,2.34,2.34,0,0,0,.14-.91Z"/><path class="cls-2" d="M86.49,99.71l.9-.14a1.22,1.22,0,0,0,.43.83,1.48,1.48,0,0,0,1,.29,1.45,1.45,0,0,0,.93-.26.77.77,0,0,0,.3-.6.55.55,0,0,0-.27-.48,3.6,3.6,0,0,0-.93-.31,8.92,8.92,0,0,1-1.39-.44,1.34,1.34,0,0,1-.59-.51,1.39,1.39,0,0,1-.2-.72,1.42,1.42,0,0,1,.17-.67,1.57,1.57,0,0,1,.45-.51,1.85,1.85,0,0,1,.58-.26,2.45,2.45,0,0,1,.78-.11,3.07,3.07,0,0,1,1.11.18,1.55,1.55,0,0,1,.71.49,1.89,1.89,0,0,1,.31.84l-.89.12a.93.93,0,0,0-.35-.65,1.31,1.31,0,0,0-.82-.23,1.49,1.49,0,0,0-.9.21.58.58,0,0,0-.26.48.46.46,0,0,0,.11.32.73.73,0,0,0,.35.24c.09,0,.36.11.8.24a10.9,10.9,0,0,1,1.35.42,1.43,1.43,0,0,1,.6.48,1.31,1.31,0,0,1,.22.78,1.48,1.48,0,0,1-.27.85,1.73,1.73,0,0,1-.77.63,2.88,2.88,0,0,1-1.13.22,2.54,2.54,0,0,1-1.6-.44A2,2,0,0,1,86.49,99.71Z"/><path class="cls-2" d="M95.72,99.58l.94.12a2.29,2.29,0,0,1-.82,1.28,2.78,2.78,0,0,1-3.41-.27,2.83,2.83,0,0,1-.69-2,2.94,2.94,0,0,1,.7-2.1,2.34,2.34,0,0,1,1.81-.75,2.29,2.29,0,0,1,1.76.73,2.9,2.9,0,0,1,.68,2.07v.24h-4a2.07,2.07,0,0,0,.5,1.36,1.49,1.49,0,0,0,1.12.47,1.44,1.44,0,0,0,.86-.26A1.76,1.76,0,0,0,95.72,99.58Zm-3-1.47h3a1.84,1.84,0,0,0-.34-1,1.4,1.4,0,0,0-1.13-.52A1.46,1.46,0,0,0,93.2,97,1.67,1.67,0,0,0,92.73,98.11Z"/><path class="cls-2" d="M97.44,99.71l.9-.14a1.22,1.22,0,0,0,.43.83,1.48,1.48,0,0,0,1,.29,1.45,1.45,0,0,0,.93-.26.77.77,0,0,0,.3-.6.55.55,0,0,0-.27-.48,3.6,3.6,0,0,0-.93-.31,8.92,8.92,0,0,1-1.39-.44,1.34,1.34,0,0,1-.59-.51,1.39,1.39,0,0,1-.2-.72,1.42,1.42,0,0,1,.17-.67,1.57,1.57,0,0,1,.45-.51,1.85,1.85,0,0,1,.58-.26,2.45,2.45,0,0,1,.78-.11,3.11,3.11,0,0,1,1.11.18,1.55,1.55,0,0,1,.71.49,1.89,1.89,0,0,1,.31.84l-.89.12a.93.93,0,0,0-.35-.65,1.31,1.31,0,0,0-.82-.23,1.49,1.49,0,0,0-.9.21.59.59,0,0,0-.27.48.47.47,0,0,0,.12.32.73.73,0,0,0,.35.24c.09,0,.35.11.8.24a10.9,10.9,0,0,1,1.35.42,1.43,1.43,0,0,1,.6.48,1.38,1.38,0,0,1,.22.78,1.48,1.48,0,0,1-.27.85,1.73,1.73,0,0,1-.77.63,2.88,2.88,0,0,1-1.13.22,2.54,2.54,0,0,1-1.6-.44A2,2,0,0,1,97.44,99.71Z"/><polygon class="cls-2" points="105.19 101.44 107.34 93.77 108.07 93.77 105.92 101.44 105.19 101.44"/><path class="cls-2" d="M116.62,93.89h1v4.29a5.06,5.06,0,0,1-.25,1.78,2.2,2.2,0,0,1-.92,1.07,3.19,3.19,0,0,1-1.73.41,3.58,3.58,0,0,1-1.71-.36,2,2,0,0,1-.94-1,4.89,4.89,0,0,1-.29-1.86V93.89h1v4.29a4.13,4.13,0,0,0,.18,1.42,1.37,1.37,0,0,0,.61.71,2.23,2.23,0,0,0,1.07.25,2.08,2.08,0,0,0,1.55-.49,2.83,2.83,0,0,0,.46-1.89Z"/><path class="cls-2" d="M118.75,99.71l.91-.14a1.26,1.26,0,0,0,.42.83,1.48,1.48,0,0,0,1,.29,1.41,1.41,0,0,0,.93-.26.77.77,0,0,0,.3-.6.55.55,0,0,0-.27-.48,3.6,3.6,0,0,0-.93-.31,9.31,9.31,0,0,1-1.39-.44,1.33,1.33,0,0,1-.78-1.23,1.41,1.41,0,0,1,.16-.67,1.57,1.57,0,0,1,.45-.51,1.85,1.85,0,0,1,.58-.26,2.52,2.52,0,0,1,.79-.11A3.15,3.15,0,0,1,122,96a1.51,1.51,0,0,1,.7.49,1.89,1.89,0,0,1,.32.84l-.89.12a.94.94,0,0,0-.36-.65,1.29,1.29,0,0,0-.82-.23,1.43,1.43,0,0,0-.89.21.59.59,0,0,0-.27.48.46.46,0,0,0,.11.32.73.73,0,0,0,.35.24c.09,0,.36.11.8.24a10.35,10.35,0,0,1,1.35.42,1.29,1.29,0,0,1,.82,1.26,1.48,1.48,0,0,1-.27.85,1.7,1.7,0,0,1-.76.63,3,3,0,0,1-1.14.22,2.49,2.49,0,0,1-1.59-.44A2.05,2.05,0,0,1,118.75,99.71Z"/><path class="cls-2" d="M128,99.58l.94.12a2.24,2.24,0,0,1-.82,1.28,2.78,2.78,0,0,1-3.41-.27,2.83,2.83,0,0,1-.69-2,2.94,2.94,0,0,1,.7-2.1,2.35,2.35,0,0,1,1.81-.75,2.28,2.28,0,0,1,1.76.73,2.91,2.91,0,0,1,.69,2.07v.24h-4a2.07,2.07,0,0,0,.5,1.36,1.52,1.52,0,0,0,1.13.47,1.43,1.43,0,0,0,.85-.26A1.69,1.69,0,0,0,128,99.58Zm-3-1.47h3a1.84,1.84,0,0,0-.34-1,1.4,1.4,0,0,0-1.13-.52,1.46,1.46,0,0,0-1.06.42A1.67,1.67,0,0,0,125,98.11Z"/><path class="cls-2" d="M130.06,101.32V95.94h.82v.81a2.17,2.17,0,0,1,.58-.75,1,1,0,0,1,.58-.18,1.84,1.84,0,0,1,.94.29l-.31.85a1.36,1.36,0,0,0-.67-.2.88.88,0,0,0-.54.18,1,1,0,0,0-.34.5A3.57,3.57,0,0,0,131,98.5v2.82Z"/><path class="cls-2" d="M133.16,99.71l.9-.14a1.26,1.26,0,0,0,.42.83,1.48,1.48,0,0,0,1,.29,1.41,1.41,0,0,0,.93-.26.78.78,0,0,0,.31-.6.55.55,0,0,0-.27-.48,3.93,3.93,0,0,0-.93-.31,8.57,8.57,0,0,1-1.39-.44,1.29,1.29,0,0,1-.59-.51,1.39,1.39,0,0,1-.2-.72,1.41,1.41,0,0,1,.16-.67,1.57,1.57,0,0,1,.45-.51,2,2,0,0,1,.58-.26,2.56,2.56,0,0,1,.79-.11,3.15,3.15,0,0,1,1.11.18,1.6,1.6,0,0,1,.71.49,2,2,0,0,1,.31.84l-.89.12a1,1,0,0,0-.35-.65,1.34,1.34,0,0,0-.83-.23,1.47,1.47,0,0,0-.89.21.59.59,0,0,0-.27.48.52.52,0,0,0,.11.32.78.78,0,0,0,.35.24c.09,0,.36.11.81.24a10.6,10.6,0,0,1,1.34.42,1.29,1.29,0,0,1,.82,1.26,1.54,1.54,0,0,1-.26.85,1.79,1.79,0,0,1-.77.63,2.92,2.92,0,0,1-1.13.22,2.52,2.52,0,0,1-1.6-.44A2,2,0,0,1,133.16,99.71Z"/><rect class="cls-2" x="141.87" y="93.89" width="0.98" height="7.42"/><path class="cls-2" d="M144.47,101.32V95.94h.82v.76a1.92,1.92,0,0,1,1.71-.88,2.35,2.35,0,0,1,.89.17,1.41,1.41,0,0,1,.61.46,1.62,1.62,0,0,1,.28.67,4.71,4.71,0,0,1,.05.89v3.31h-.91V98.05a2.55,2.55,0,0,0-.1-.84.9.9,0,0,0-.38-.44,1.19,1.19,0,0,0-.64-.16,1.46,1.46,0,0,0-1,.37,1.81,1.81,0,0,0-.42,1.4v2.94Z"/><path class="cls-2" d="M152.22,100.5l.13.81a3.57,3.57,0,0,1-.69.08,1.56,1.56,0,0,1-.76-.16.86.86,0,0,1-.39-.41,3.42,3.42,0,0,1-.11-1.08V96.65h-.67v-.71h.67V94.61l.91-.55v1.88h.91v.71h-.91v3.14a1.73,1.73,0,0,0,0,.5l.16.18a.65.65,0,0,0,.31.07A3.82,3.82,0,0,0,152.22,100.5Z"/><path class="cls-2" d="M156.79,99.58l.94.12a2.24,2.24,0,0,1-.82,1.28,2.78,2.78,0,0,1-3.41-.27,2.83,2.83,0,0,1-.69-2,2.94,2.94,0,0,1,.7-2.1,2.35,2.35,0,0,1,1.81-.75,2.28,2.28,0,0,1,1.76.73,2.9,2.9,0,0,1,.68,2.07v.24h-4a2.07,2.07,0,0,0,.5,1.36,1.52,1.52,0,0,0,1.13.47,1.43,1.43,0,0,0,.85-.26A1.76,1.76,0,0,0,156.79,99.58Zm-3-1.47h3a1.84,1.84,0,0,0-.34-1,1.4,1.4,0,0,0-1.13-.52,1.46,1.46,0,0,0-1.06.42A1.67,1.67,0,0,0,153.8,98.11Z"/><path class="cls-2" d="M158.87,101.32V95.94h.82v.81a2.17,2.17,0,0,1,.58-.75,1,1,0,0,1,.58-.18,1.84,1.84,0,0,1,.94.29l-.31.85a1.36,1.36,0,0,0-.67-.2.88.88,0,0,0-.54.18,1,1,0,0,0-.34.5,3.57,3.57,0,0,0-.15,1.06v2.82Z"/><path class="cls-2" d="M165.84,100.65a3.33,3.33,0,0,1-1,.61,2.73,2.73,0,0,1-1,.18,2,2,0,0,1-1.36-.44,1.4,1.4,0,0,1-.48-1.1,1.45,1.45,0,0,1,.18-.72,1.51,1.51,0,0,1,.47-.53,2.47,2.47,0,0,1,.66-.3,7.66,7.66,0,0,1,.81-.13,7.71,7.71,0,0,0,1.62-.32c0-.12,0-.2,0-.23a1,1,0,0,0-.26-.79,1.56,1.56,0,0,0-1-.31,1.62,1.62,0,0,0-.95.23,1.39,1.39,0,0,0-.45.8l-.89-.13a2.16,2.16,0,0,1,.4-.92,1.67,1.67,0,0,1,.8-.54,3.51,3.51,0,0,1,1.22-.19,3.16,3.16,0,0,1,1.12.16,1.48,1.48,0,0,1,.64.41,1.54,1.54,0,0,1,.28.62,5.28,5.28,0,0,1,0,.84v1.21a12.49,12.49,0,0,0,.06,1.61,2.19,2.19,0,0,0,.23.65H166A2.12,2.12,0,0,1,165.84,100.65Zm-.08-2a6.64,6.64,0,0,1-1.49.34,4.53,4.53,0,0,0-.79.18.82.82,0,0,0-.36.3.8.8,0,0,0-.13.43.78.78,0,0,0,.28.61,1.19,1.19,0,0,0,.81.24,1.78,1.78,0,0,0,.93-.23,1.38,1.38,0,0,0,.61-.63,2.34,2.34,0,0,0,.14-.91Z"/><path class="cls-2" d="M171.61,99.35l.89.11a2.34,2.34,0,0,1-.75,1.45,2.19,2.19,0,0,1-1.49.53,2.31,2.31,0,0,1-1.77-.72,2.91,2.91,0,0,1-.67-2.07,3.67,3.67,0,0,1,.29-1.53,2,2,0,0,1,.88-1,2.67,2.67,0,0,1,1.28-.32,2.26,2.26,0,0,1,1.43.44,2.1,2.1,0,0,1,.72,1.26l-.89.14a1.45,1.45,0,0,0-.45-.82,1.16,1.16,0,0,0-.78-.27,1.38,1.38,0,0,0-1.11.49,2.33,2.33,0,0,0-.43,1.56,2.43,2.43,0,0,0,.41,1.58,1.38,1.38,0,0,0,1.08.49,1.28,1.28,0,0,0,.9-.33A1.68,1.68,0,0,0,171.61,99.35Z"/><path class="cls-2" d="M175.27,100.5l.13.81a3.66,3.66,0,0,1-.69.08,1.64,1.64,0,0,1-.77-.16.84.84,0,0,1-.38-.41,3.13,3.13,0,0,1-.11-1.08V96.65h-.67v-.71h.67V94.61l.9-.55v1.88h.92v.71h-.92v3.14a1.6,1.6,0,0,0,.05.5l.16.18a.62.62,0,0,0,.31.07C175,100.54,175.1,100.52,175.27,100.5Z"/><path class="cls-2" d="M68.07,39.71V27.24h3.85a3.83,3.83,0,0,1,1.84.37,2.74,2.74,0,0,1,1.12,1.12,3.37,3.37,0,0,1,.43,1.69A3.17,3.17,0,0,1,74.94,32a2.89,2.89,0,0,1-1.06,1.11,2.69,2.69,0,0,1,1.4,1.1,3.36,3.36,0,0,1,.52,1.92,4.08,4.08,0,0,1-.47,2,2.91,2.91,0,0,1-1.23,1.25,5,5,0,0,1-2.13.38Zm1.36-7.23h2.21a4.49,4.49,0,0,0,1.24-.12,1.54,1.54,0,0,0,.81-.59A2.06,2.06,0,0,0,74,30.62a2.24,2.24,0,0,0-.26-1.12,1.39,1.39,0,0,0-.69-.61,4.6,4.6,0,0,0-1.55-.17h-2Zm0,5.76H72a3.83,3.83,0,0,0,1.25-.15,1.72,1.72,0,0,0,.88-.73,2.46,2.46,0,0,0,.3-1.27,2.21,2.21,0,0,0-.29-1.19,1.7,1.7,0,0,0-.78-.72A3.86,3.86,0,0,0,71.8,34H69.43Z"/><path class="cls-2" d="M77.43,39.71V27.24h1.25V39.71Z"/><path class="cls-2" d="M80.17,35.2a5.46,5.46,0,0,1,1-3.53,3.18,3.18,0,0,1,5,0,5.18,5.18,0,0,1,1,3.43,5.66,5.66,0,0,1-1,3.63,3.18,3.18,0,0,1-5,0A5.39,5.39,0,0,1,80.17,35.2Zm1.28,0a4.4,4.4,0,0,0,.64,2.61,1.92,1.92,0,0,0,1.58.86,1.84,1.84,0,0,0,1.52-.87,4.39,4.39,0,0,0,.63-2.6,4.39,4.39,0,0,0-.63-2.6,1.92,1.92,0,0,0-1.59-.85,1.83,1.83,0,0,0-1.52.86A4.35,4.35,0,0,0,81.45,35.19Z"/><path class="cls-2" d="M88.11,35.2a5.46,5.46,0,0,1,1-3.53,3.19,3.19,0,0,1,5,0,5.23,5.23,0,0,1,1,3.43,5.6,5.6,0,0,1-1,3.63,3.18,3.18,0,0,1-5,0A5.39,5.39,0,0,1,88.11,35.2Zm1.29,0A4.4,4.4,0,0,0,90,37.8a1.94,1.94,0,0,0,1.59.86,1.86,1.86,0,0,0,1.52-.87,4.39,4.39,0,0,0,.63-2.6,4.31,4.31,0,0,0-.64-2.6,1.91,1.91,0,0,0-1.58-.85A1.82,1.82,0,0,0,90,32.6,4.35,4.35,0,0,0,89.4,35.19Z"/><path class="cls-2" d="M101.33,39.71V38.57a2.54,2.54,0,0,1-.88,1,2.07,2.07,0,0,1-1.15.35A2.8,2.8,0,0,1,97,38.68a5.56,5.56,0,0,1-1-3.48,6.92,6.92,0,0,1,.43-2.61A3.43,3.43,0,0,1,97.63,31a2.58,2.58,0,0,1,1.58-.52,2.24,2.24,0,0,1,1.15.32,2.78,2.78,0,0,1,.88.92V27.24h1.26V39.71Zm-4-4.5a4.48,4.48,0,0,0,.61,2.6,1.71,1.71,0,0,0,1.41.85,1.68,1.68,0,0,0,1.39-.82,4.23,4.23,0,0,0,.59-2.46,5.07,5.07,0,0,0-.59-2.77,1.74,1.74,0,0,0-1.48-.87,1.62,1.62,0,0,0-1.36.83A4.79,4.79,0,0,0,97.36,35.21Z"/><path class="cls-2" d="M72.12,62l-4-12.47h1.47l2.66,9.06c.21.7.38,1.38.54,2q.24-1,.54-2l2.77-9.06h1.38L73.51,62Z"/><path class="cls-2" d="M78.29,51.33V49.57h1.25v1.76Zm0,10.71V53h1.25v9Z"/><path class="cls-2" d="M81,57.53A5.45,5.45,0,0,1,82,54a3.18,3.18,0,0,1,5,0,5.26,5.26,0,0,1,1,3.44,5.63,5.63,0,0,1-1,3.62,3.19,3.19,0,0,1-5,0A5.41,5.41,0,0,1,81,57.53Zm1.28,0a4.33,4.33,0,0,0,.64,2.61,1.91,1.91,0,0,0,1.58.86A1.84,1.84,0,0,0,86,60.12a4.41,4.41,0,0,0,.63-2.6,4.31,4.31,0,0,0-.64-2.6,1.91,1.91,0,0,0-1.58-.86,1.86,1.86,0,0,0-1.52.86A4.41,4.41,0,0,0,82.27,57.52Z"/><path class="cls-2" d="M89.36,62V49.57h1.25V62Z"/><path class="cls-2" d="M97.64,59.13l1.29.2a3.86,3.86,0,0,1-1.17,2.18,3.06,3.06,0,0,1-2.09.73,3.12,3.12,0,0,1-2.55-1.19,5.35,5.35,0,0,1-1-3.45,5.58,5.58,0,0,1,1-3.57,3,3,0,0,1,2.48-1.23A3,3,0,0,1,98,54a5.53,5.53,0,0,1,1,3.5v.4H93.44a3.88,3.88,0,0,0,.7,2.3,1.9,1.9,0,0,0,1.53.78C96.62,61,97.27,60.37,97.64,59.13Zm-4.13-2.47h4.14a3.5,3.5,0,0,0-.5-1.75,1.83,1.83,0,0,0-1.54-.85,1.86,1.86,0,0,0-1.44.7A3.08,3.08,0,0,0,93.51,56.66Z"/><path class="cls-2" d="M100.52,62V53h1.13v1.27a3.11,3.11,0,0,1,1-1.11A2.56,2.56,0,0,1,104,52.8a2.49,2.49,0,0,1,1.09.24,2.23,2.23,0,0,1,.82.61,2.41,2.41,0,0,1,.46,1,8.23,8.23,0,0,1,.16,1.86V62h-1.25v-5.5a4.7,4.7,0,0,0-.17-1.46,1.55,1.55,0,0,0-.54-.71,1.48,1.48,0,0,0-.83-.25,1.76,1.76,0,0,0-1.44.67,3.77,3.77,0,0,0-.54,2.31V62Z"/><path class="cls-2" d="M113.31,58.73l1.24.2a4.16,4.16,0,0,1-1.07,2.46,2.79,2.79,0,0,1-2,.85,2.92,2.92,0,0,1-2.4-1.19,5.67,5.67,0,0,1-.94-3.53A5.6,5.6,0,0,1,109,54a3,3,0,0,1,2.44-1.18,2.75,2.75,0,0,1,1.93.72,3.48,3.48,0,0,1,1,2.14l-1.22.22a2.65,2.65,0,0,0-.62-1.37,1.43,1.43,0,0,0-1.06-.45,1.87,1.87,0,0,0-1.54.82,4.49,4.49,0,0,0-.6,2.61,4.72,4.72,0,0,0,.58,2.67,1.76,1.76,0,0,0,1.49.83,1.62,1.62,0,0,0,1.22-.55A3,3,0,0,0,113.31,58.73Z"/><path class="cls-2" d="M120.67,59.13l1.29.2a3.86,3.86,0,0,1-1.17,2.18,3.06,3.06,0,0,1-2.09.73,3.12,3.12,0,0,1-2.55-1.19,5.35,5.35,0,0,1-1-3.45,5.58,5.58,0,0,1,1-3.57,3,3,0,0,1,2.49-1.23A3,3,0,0,1,121,54a5.53,5.53,0,0,1,1,3.5v.4h-5.53a4,4,0,0,0,.7,2.3,1.91,1.91,0,0,0,1.54.78C119.65,61,120.3,60.37,120.67,59.13Zm-4.12-2.47h4.13a3.4,3.4,0,0,0-.5-1.75,1.82,1.82,0,0,0-1.54-.85,1.86,1.86,0,0,0-1.44.7A3.07,3.07,0,0,0,116.55,56.66Z"/></g></g></svg>